<svg xmlns="http://www.w3.org/2000/svg" viewBox="0 0 470 236" width="470" height="236" role="img" aria-label="16-input AND from NAND4 and NOR4" font-family="'Segoe UI', Arial, sans-serif" stroke-linecap="round" stroke-linejoin="round"><path d="M 96 16 H 120.8 A 20 20 0 0 1 120.8 56 H 96 Z" fill="#ffffff" stroke="#1f2328" stroke-width="1.4"/><circle cx="144" cy="36" r="3.2" fill="#ffffff" stroke="#1f2328" stroke-width="1.2"/><line x1="86" y1="21" x2="96" y2="21" stroke="#1f2328" stroke-width="1.4"/><line x1="86" y1="31" x2="96" y2="31" stroke="#1f2328" stroke-width="1.4"/><line x1="86" y1="41" x2="96" y2="41" stroke="#1f2328" stroke-width="1.4"/><line x1="86" y1="51" x2="96" y2="51" stroke="#1f2328" stroke-width="1.4"/><text x="82" y="36" font-size="8.5" text-anchor="end" fill="#1f2328" font-weight="400" dominant-baseline="central" font-family="Consolas, 'Courier New', monospace">a0-a3</text><path d="M 96 68 H 120.8 A 20 20 0 0 1 120.8 108 H 96 Z" fill="#ffffff" stroke="#1f2328" stroke-width="1.4"/><circle cx="144" cy="88" r="3.2" fill="#ffffff" stroke="#1f2328" stroke-width="1.2"/><line x1="86" y1="73" x2="96" y2="73" stroke="#1f2328" stroke-width="1.4"/><line x1="86" y1="83" x2="96" y2="83" stroke="#1f2328" stroke-width="1.4"/><line x1="86" y1="93" x2="96" y2="93" stroke="#1f2328" stroke-width="1.4"/><line x1="86" y1="103" x2="96" y2="103" stroke="#1f2328" stroke-width="1.4"/><text x="82" y="88" font-size="8.5" text-anchor="end" fill="#1f2328" font-weight="400" dominant-baseline="central" font-family="Consolas, 'Courier New', monospace">a4-a7</text><path d="M 96 120 H 120.8 A 20 20 0 0 1 120.8 160 H 96 Z" fill="#ffffff" stroke="#1f2328" stroke-width="1.4"/><circle cx="144" cy="140" r="3.2" fill="#ffffff" stroke="#1f2328" stroke-width="1.2"/><line x1="86" y1="125" x2="96" y2="125" stroke="#1f2328" stroke-width="1.4"/><line x1="86" y1="135" x2="96" y2="135" stroke="#1f2328" stroke-width="1.4"/><line x1="86" y1="145" x2="96" y2="145" stroke="#1f2328" stroke-width="1.4"/><line x1="86" y1="155" x2="96" y2="155" stroke="#1f2328" stroke-width="1.4"/><text x="82" y="140" font-size="8.5" text-anchor="end" fill="#1f2328" font-weight="400" dominant-baseline="central" font-family="Consolas, 'Courier New', monospace">a8-a11</text><path d="M 96 172 H 120.8 A 20 20 0 0 1 120.8 212 H 96 Z" fill="#ffffff" stroke="#1f2328" stroke-width="1.4"/><circle cx="144" cy="192" r="3.2" fill="#ffffff" stroke="#1f2328" stroke-width="1.2"/><line x1="86" y1="177" x2="96" y2="177" stroke="#1f2328" stroke-width="1.4"/><line x1="86" y1="187" x2="96" y2="187" stroke="#1f2328" stroke-width="1.4"/><line x1="86" y1="197" x2="96" y2="197" stroke="#1f2328" stroke-width="1.4"/><line x1="86" y1="207" x2="96" y2="207" stroke="#1f2328" stroke-width="1.4"/><text x="82" y="192" font-size="8.5" text-anchor="end" fill="#1f2328" font-weight="400" dominant-baseline="central" font-family="Consolas, 'Courier New', monospace">a12-a15</text><path d="M 262 82 Q 306.44 82 333.68 114 Q 306.44 146 262 146 Q 283.5 114 262 82 Z" fill="#ffffff" stroke="#1f2328" stroke-width="1.4"/><circle cx="336.88" cy="114" r="3.2" fill="#ffffff" stroke="#1f2328" stroke-width="1.2"/><line x1="252" y1="90" x2="266.7" y2="90" stroke="#1f2328" stroke-width="1.4"/><line x1="252" y1="106" x2="272.08" y2="106" stroke="#1f2328" stroke-width="1.4"/><line x1="252" y1="122" x2="272.08" y2="122" stroke="#1f2328" stroke-width="1.4"/><line x1="252" y1="138" x2="266.7" y2="138" stroke="#1f2328" stroke-width="1.4"/><polyline points="147.2,36 196,36 196,90 252,90" fill="none" stroke="#1f2328" stroke-width="1.4"/><polyline points="147.2,88 206,88 206,106 252,106" fill="none" stroke="#1f2328" stroke-width="1.4"/><polyline points="147.2,140 216,140 216,122 252,122" fill="none" stroke="#1f2328" stroke-width="1.4"/><polyline points="147.2,192 226,192 226,138 252,138" fill="none" stroke="#1f2328" stroke-width="1.4"/><polyline points="340.08,114 394,114" fill="none" stroke="#1f2328" stroke-width="1.4"/><polygon points="400,114 392.5,117.3 392.5,110.7" fill="#1f2328" stroke="#1f2328" stroke-width="0.8"/><text x="404" y="114" font-size="10" text-anchor="start" fill="#1f2328" font-weight="600" dominant-baseline="central" font-family="Consolas, 'Courier New', monospace">AND16</text><text x="236" y="226" font-size="8" text-anchor="middle" fill="#6a737d" font-weight="400" dominant-baseline="central">NAND4: logical effort 2, parasitic 4    NOR4: logical effort 3, parasitic 4</text></svg>
