<svg xmlns="http://www.w3.org/2000/svg" viewBox="0 0 620 264" width="620" height="264" role="img" aria-label="serial data from another clock domain"><svg x="0" y="0" xmlns="http://www.w3.org/2000/svg" viewBox="0 0 620 84" width="620" height="84" role="img" aria-label="Wrong: synchronize the serial bits" font-family="'Segoe UI', Arial, sans-serif" stroke-linecap="round" stroke-linejoin="round"><text x="10" y="12" font-size="9.5" text-anchor="start" fill="#1f2328" font-weight="600" dominant-baseline="central">Wrong: synchronize the serial bits</text><rect x="10" y="26" width="110" height="40" rx="4" fill="#f3f5f7" stroke="#1f2328" stroke-width="1.4"/><text x="65" y="40.11" font-size="9.5" text-anchor="middle" fill="#1f2328" font-weight="600" dominant-baseline="central">serial bits</text><text x="65" y="52.27" font-size="7.5" text-anchor="middle" fill="#6a737d" font-weight="400" dominant-baseline="central">clk_a domain</text><rect x="154" y="26" width="100" height="40" rx="4" fill="#fdecea" stroke="#b42318" stroke-width="1.4"/><text x="204" y="40.11" font-size="9.5" text-anchor="middle" fill="#b42318" font-weight="600" dominant-baseline="central">2-flop sync</text><text x="204" y="52.27" font-size="7.5" text-anchor="middle" fill="#b42318" font-weight="400" dominant-baseline="central">clk_b</text><polyline points="120,46 148,46" fill="none" stroke="#1f2328" stroke-width="1.4"/><polygon points="154,46 146.5,49.3 146.5,42.7" fill="#1f2328" stroke="#1f2328" stroke-width="0.8"/><rect x="288" y="26" width="100" height="40" rx="4" fill="#f3f5f7" stroke="#1f2328" stroke-width="1.4"/><text x="338" y="40.11" font-size="9.5" text-anchor="middle" fill="#1f2328" font-weight="600" dominant-baseline="central">detector</text><text x="338" y="52.27" font-size="7.5" text-anchor="middle" fill="#6a737d" font-weight="400" dominant-baseline="central">clk_b</text><polyline points="254,46 282,46" fill="none" stroke="#1f2328" stroke-width="1.4"/><polygon points="288,46 280.5,49.3 280.5,42.7" fill="#1f2328" stroke="#1f2328" stroke-width="0.8"/><text x="402" y="40.9" font-size="8.5" text-anchor="start" fill="#b42318" font-weight="400" dominant-baseline="central">clk_b samples some bits twice</text><text x="402" y="51.1" font-size="8.5" text-anchor="start" fill="#b42318" font-weight="400" dominant-baseline="central">and misses others</text></svg><svg x="0" y="90" xmlns="http://www.w3.org/2000/svg" viewBox="0 0 620 84" width="620" height="84" role="img" aria-label="Option 1: detect in the source domain" font-family="'Segoe UI', Arial, sans-serif" stroke-linecap="round" stroke-linejoin="round"><text x="10" y="12" font-size="9.5" text-anchor="start" fill="#1f2328" font-weight="600" dominant-baseline="central">Option 1: detect in the source domain</text><rect x="10" y="26" width="110" height="40" rx="4" fill="#f3f5f7" stroke="#1f2328" stroke-width="1.4"/><text x="65" y="40.11" font-size="9.5" text-anchor="middle" fill="#1f2328" font-weight="600" dominant-baseline="central">serial bits</text><text x="65" y="52.27" font-size="7.5" text-anchor="middle" fill="#6a737d" font-weight="400" dominant-baseline="central">clk_a domain</text><rect x="154" y="26" width="100" height="40" rx="4" fill="#e7f3e8" stroke="#2e7d32" stroke-width="1.4"/><text x="204" y="40.11" font-size="9.5" text-anchor="middle" fill="#2e7d32" font-weight="600" dominant-baseline="central">detector</text><text x="204" y="52.27" font-size="7.5" text-anchor="middle" fill="#2e7d32" font-weight="400" dominant-baseline="central">clk_a</text><polyline points="120,46 148,46" fill="none" stroke="#1f2328" stroke-width="1.4"/><polygon points="154,46 146.5,49.3 146.5,42.7" fill="#1f2328" stroke="#1f2328" stroke-width="0.8"/><rect x="288" y="26" width="110" height="40" rx="4" fill="#f3f5f7" stroke="#1f2328" stroke-width="1.4"/><text x="343" y="40.11" font-size="9.5" text-anchor="middle" fill="#1f2328" font-weight="600" dominant-baseline="central">pulse sync</text><text x="343" y="52.27" font-size="7.5" text-anchor="middle" fill="#6a737d" font-weight="400" dominant-baseline="central">toggle + 2 flops</text><polyline points="254,46 282,46" fill="none" stroke="#1f2328" stroke-width="1.4"/><polygon points="288,46 280.5,49.3 280.5,42.7" fill="#1f2328" stroke="#1f2328" stroke-width="0.8"/><rect x="432" y="26" width="80" height="40" rx="4" fill="#f3f5f7" stroke="#1f2328" stroke-width="1.4"/><text x="472" y="40.11" font-size="9.5" text-anchor="middle" fill="#1f2328" font-weight="600" dominant-baseline="central">detect</text><text x="472" y="52.27" font-size="7.5" text-anchor="middle" fill="#6a737d" font-weight="400" dominant-baseline="central">clk_b</text><polyline points="398,46 426,46" fill="none" stroke="#1f2328" stroke-width="1.4"/><polygon points="432,46 424.5,49.3 424.5,42.7" fill="#1f2328" stroke="#1f2328" stroke-width="0.8"/></svg><svg x="0" y="180" xmlns="http://www.w3.org/2000/svg" viewBox="0 0 620 84" width="620" height="84" role="img" aria-label="Option 2: move words, not bits" font-family="'Segoe UI', Arial, sans-serif" stroke-linecap="round" stroke-linejoin="round"><text x="10" y="12" font-size="9.5" text-anchor="start" fill="#1f2328" font-weight="600" dominant-baseline="central">Option 2: move words, not bits</text><rect x="10" y="26" width="110" height="40" rx="4" fill="#f3f5f7" stroke="#1f2328" stroke-width="1.4"/><text x="65" y="40.11" font-size="9.5" text-anchor="middle" fill="#1f2328" font-weight="600" dominant-baseline="central">deserializer</text><text x="65" y="52.27" font-size="7.5" text-anchor="middle" fill="#6a737d" font-weight="400" dominant-baseline="central">clk_a: W bits</text><rect x="154" y="26" width="100" height="40" rx="4" fill="#e7f3e8" stroke="#2e7d32" stroke-width="1.4"/><text x="204" y="40.11" font-size="9.5" text-anchor="middle" fill="#2e7d32" font-weight="600" dominant-baseline="central">async FIFO</text><text x="204" y="52.27" font-size="7.5" text-anchor="middle" fill="#2e7d32" font-weight="400" dominant-baseline="central">gray pointers</text><polyline points="120,46 148,46" fill="none" stroke="#1f2328" stroke-width="1.4"/><polygon points="154,46 146.5,49.3 146.5,42.7" fill="#1f2328" stroke="#1f2328" stroke-width="0.8"/><rect x="288" y="26" width="130" height="40" rx="4" fill="#f3f5f7" stroke="#1f2328" stroke-width="1.4"/><text x="353" y="40.11" font-size="9.5" text-anchor="middle" fill="#1f2328" font-weight="600" dominant-baseline="central">seq_det_par</text><text x="353" y="52.27" font-size="7.5" text-anchor="middle" fill="#6a737d" font-weight="400" dominant-baseline="central">clk_b: W bits/clock</text><polyline points="254,46 282,46" fill="none" stroke="#1f2328" stroke-width="1.4"/><polygon points="288,46 280.5,49.3 280.5,42.7" fill="#1f2328" stroke="#1f2328" stroke-width="0.8"/></svg></svg>
