<svg xmlns="http://www.w3.org/2000/svg" viewBox="0 0 642 150" width="642" height="150" role="img" aria-label="three ways to produce detect"><svg x="0" y="0" xmlns="http://www.w3.org/2000/svg" viewBox="0 0 206 150" width="206" height="150" role="img" aria-label="Mealy output" font-family="'Segoe UI', Arial, sans-serif" stroke-linecap="round" stroke-linejoin="round"><text x="103" y="12" font-size="9.5" text-anchor="middle" fill="#1f2328" font-weight="600" dominant-baseline="central">Mealy output</text><rect x="14" y="44" width="42" height="54" rx="2" fill="#ffffff" stroke="#1f2328" stroke-width="1.4"/><polyline points="14,83 21,88 14,93" fill="none" stroke="#1f2328" stroke-width="1.1"/><text x="19" y="56" font-size="9" text-anchor="start" fill="#1f2328" font-weight="400" dominant-baseline="central">D</text><text x="51" y="56" font-size="9" text-anchor="end" fill="#1f2328" font-weight="400" dominant-baseline="central">Q</text><text x="38" y="75" font-size="8" text-anchor="middle" fill="#6a737d" font-weight="400" dominant-baseline="central">state</text><rect x="82" y="46" width="52" height="50" rx="4" fill="#f3f5f7" stroke="#1f2328" stroke-width="1.4"/><text x="108" y="71" font-size="9" text-anchor="middle" fill="#1f2328" font-weight="400" dominant-baseline="central">logic</text><polyline points="56,56 76,56" fill="none" stroke="#1f2328" stroke-width="1.4"/><polygon points="82,56 74.5,59.3 74.5,52.7" fill="#1f2328" stroke="#1f2328" stroke-width="0.8"/><text x="100" y="30" font-size="8.5" text-anchor="middle" fill="#1f2328" font-weight="400" dominant-baseline="central" font-family="Consolas, 'Courier New', monospace">din</text><polyline points="108,34 108,40" fill="none" stroke="#b42318" stroke-width="1.4"/><polygon points="108,46 104.7,38.5 111.3,38.5" fill="#b42318" stroke="#b42318" stroke-width="0.8"/><polyline points="134,71 184,71" fill="none" stroke="#b42318" stroke-width="1.4"/><polygon points="190,71 182.5,74.3 182.5,67.7" fill="#b42318" stroke="#b42318" stroke-width="0.8"/><text x="190" y="60" font-size="8.5" text-anchor="end" fill="#1f2328" font-weight="400" dominant-baseline="central" font-family="Consolas, 'Courier New', monospace">detect</text><text x="103" y="128" font-size="8" text-anchor="middle" fill="#b42318" font-weight="400" dominant-baseline="central">glitch-prone, din-to-detect path</text><polyline points="108,96 108,112 6,112 6,60 14,60" fill="none" stroke="#6a737d" stroke-width="1.4"/></svg><svg x="218" y="0" xmlns="http://www.w3.org/2000/svg" viewBox="0 0 206 150" width="206" height="150" role="img" aria-label="Registered Mealy" font-family="'Segoe UI', Arial, sans-serif" stroke-linecap="round" stroke-linejoin="round"><text x="103" y="12" font-size="9.5" text-anchor="middle" fill="#1f2328" font-weight="600" dominant-baseline="central">Registered Mealy</text><rect x="14" y="44" width="42" height="54" rx="2" fill="#ffffff" stroke="#1f2328" stroke-width="1.4"/><polyline points="14,83 21,88 14,93" fill="none" stroke="#1f2328" stroke-width="1.1"/><text x="19" y="56" font-size="9" text-anchor="start" fill="#1f2328" font-weight="400" dominant-baseline="central">D</text><text x="51" y="56" font-size="9" text-anchor="end" fill="#1f2328" font-weight="400" dominant-baseline="central">Q</text><text x="38" y="75" font-size="8" text-anchor="middle" fill="#6a737d" font-weight="400" dominant-baseline="central">state</text><rect x="82" y="46" width="52" height="50" rx="4" fill="#f3f5f7" stroke="#1f2328" stroke-width="1.4"/><text x="108" y="71" font-size="9" text-anchor="middle" fill="#1f2328" font-weight="400" dominant-baseline="central">logic</text><polyline points="56,56 76,56" fill="none" stroke="#1f2328" stroke-width="1.4"/><polygon points="82,56 74.5,59.3 74.5,52.7" fill="#1f2328" stroke="#1f2328" stroke-width="0.8"/><text x="100" y="30" font-size="8.5" text-anchor="middle" fill="#1f2328" font-weight="400" dominant-baseline="central" font-family="Consolas, 'Courier New', monospace">din</text><polyline points="108,34 108,40" fill="none" stroke="#1f2328" stroke-width="1.4"/><polygon points="108,46 104.7,38.5 111.3,38.5" fill="#1f2328" stroke="#1f2328" stroke-width="0.8"/><rect x="150" y="60" width="30" height="38" rx="2" fill="#ffffff" stroke="#1f2328" stroke-width="1.4"/><polyline points="150,83 157,88 150,93" fill="none" stroke="#1f2328" stroke-width="1.1"/><text x="155" y="72" font-size="9" text-anchor="start" fill="#1f2328" font-weight="400" dominant-baseline="central">D</text><text x="175" y="72" font-size="9" text-anchor="end" fill="#1f2328" font-weight="400" dominant-baseline="central">Q</text><polyline points="134,71 142,71 142,72 144,72" fill="none" stroke="#1f2328" stroke-width="1.4"/><polygon points="150,72 142.5,75.3 142.5,68.7" fill="#1f2328" stroke="#1f2328" stroke-width="0.8"/><polyline points="180,72 196,72" fill="none" stroke="#2e7d32" stroke-width="1.4"/><polygon points="202,72 194.5,75.3 194.5,68.7" fill="#2e7d32" stroke="#2e7d32" stroke-width="0.8"/><text x="200" y="50" font-size="8.5" text-anchor="end" fill="#1f2328" font-weight="400" dominant-baseline="central" font-family="Consolas, 'Courier New', monospace">detect</text><text x="103" y="128" font-size="8" text-anchor="middle" fill="#2e7d32" font-weight="400" dominant-baseline="central">clean, one cycle later</text><polyline points="108,96 108,112 6,112 6,60 14,60" fill="none" stroke="#6a737d" stroke-width="1.4"/></svg><svg x="436" y="0" xmlns="http://www.w3.org/2000/svg" viewBox="0 0 206 150" width="206" height="150" role="img" aria-label="Output-encoded state" font-family="'Segoe UI', Arial, sans-serif" stroke-linecap="round" stroke-linejoin="round"><text x="103" y="12" font-size="9.5" text-anchor="middle" fill="#1f2328" font-weight="600" dominant-baseline="central">Output-encoded state</text><rect x="14" y="44" width="42" height="54" rx="2" fill="#ffffff" stroke="#1f2328" stroke-width="1.4"/><polyline points="14,83 21,88 14,93" fill="none" stroke="#1f2328" stroke-width="1.1"/><text x="19" y="56" font-size="9" text-anchor="start" fill="#1f2328" font-weight="400" dominant-baseline="central">D</text><text x="51" y="56" font-size="9" text-anchor="end" fill="#1f2328" font-weight="400" dominant-baseline="central">Q</text><text x="38" y="75" font-size="8" text-anchor="middle" fill="#6a737d" font-weight="400" dominant-baseline="central">state</text><rect x="82" y="46" width="52" height="50" rx="4" fill="#f3f5f7" stroke="#1f2328" stroke-width="1.4"/><text x="108" y="71" font-size="9" text-anchor="middle" fill="#1f2328" font-weight="400" dominant-baseline="central">logic</text><polyline points="56,56 76,56" fill="none" stroke="#1f2328" stroke-width="1.4"/><polygon points="82,56 74.5,59.3 74.5,52.7" fill="#1f2328" stroke="#1f2328" stroke-width="0.8"/><polyline points="56,56 68,56 68,38 184,38" fill="none" stroke="#2e7d32" stroke-width="1.4"/><polygon points="190,38 182.5,41.3 182.5,34.7" fill="#2e7d32" stroke="#2e7d32" stroke-width="0.8"/><text x="190" y="28" font-size="8" text-anchor="end" fill="#1f2328" font-weight="400" dominant-baseline="central" font-family="Consolas, 'Courier New', monospace">detect = one state bit</text><text x="103" y="128" font-size="8" text-anchor="middle" fill="#2e7d32" font-weight="400" dominant-baseline="central">clean, no extra flop</text><polyline points="108,96 108,112 6,112 6,60 14,60" fill="none" stroke="#6a737d" stroke-width="1.4"/></svg></svg>
