<svg xmlns="http://www.w3.org/2000/svg" viewBox="0 0 600 215" width="600" height="215" role="img" aria-label="shift register plus comparator" font-family="'Segoe UI', Arial, sans-serif" stroke-linecap="round" stroke-linejoin="round"><text x="243" y="11" font-size="8.5" text-anchor="middle" fill="#6a737d" font-weight="400" dominant-baseline="central">history: N-1 flops, no reset</text><rect x="120" y="22" width="46" height="52" rx="2" fill="#ffffff" stroke="#1f2328" stroke-width="1.4"/><polyline points="120,59 127,64 120,69" fill="none" stroke="#1f2328" stroke-width="1.1"/><text x="125" y="34" font-size="9" text-anchor="start" fill="#1f2328" font-weight="400" dominant-baseline="central">D</text><text x="161" y="34" font-size="9" text-anchor="end" fill="#1f2328" font-weight="400" dominant-baseline="central">Q</text><text x="146" y="52" font-size="8" text-anchor="middle" fill="#6a737d" font-weight="400" dominant-baseline="central">hist[0]</text><rect x="220" y="22" width="46" height="52" rx="2" fill="#ffffff" stroke="#1f2328" stroke-width="1.4"/><polyline points="220,59 227,64 220,69" fill="none" stroke="#1f2328" stroke-width="1.1"/><text x="225" y="34" font-size="9" text-anchor="start" fill="#1f2328" font-weight="400" dominant-baseline="central">D</text><text x="261" y="34" font-size="9" text-anchor="end" fill="#1f2328" font-weight="400" dominant-baseline="central">Q</text><text x="246" y="52" font-size="8" text-anchor="middle" fill="#6a737d" font-weight="400" dominant-baseline="central">hist[1]</text><rect x="320" y="22" width="46" height="52" rx="2" fill="#ffffff" stroke="#1f2328" stroke-width="1.4"/><polyline points="320,59 327,64 320,69" fill="none" stroke="#1f2328" stroke-width="1.1"/><text x="325" y="34" font-size="9" text-anchor="start" fill="#1f2328" font-weight="400" dominant-baseline="central">D</text><text x="361" y="34" font-size="9" text-anchor="end" fill="#1f2328" font-weight="400" dominant-baseline="central">Q</text><text x="346" y="52" font-size="8" text-anchor="middle" fill="#6a737d" font-weight="400" dominant-baseline="central">hist[2]</text><text x="14" y="34" font-size="10" text-anchor="start" fill="#1f2328" font-weight="400" dominant-baseline="central" font-family="Consolas, 'Courier New', monospace">din</text><polyline points="42,34 114,34" fill="none" stroke="#1f2328" stroke-width="1.4"/><polygon points="120,34 112.5,37.3 112.5,30.7" fill="#1f2328" stroke="#1f2328" stroke-width="0.8"/><polyline points="166,34 214,34" fill="none" stroke="#1f2328" stroke-width="1.4"/><polygon points="220,34 212.5,37.3 212.5,30.7" fill="#1f2328" stroke="#1f2328" stroke-width="0.8"/><polyline points="266,34 314,34" fill="none" stroke="#1f2328" stroke-width="1.4"/><polygon points="320,34 312.5,37.3 312.5,30.7" fill="#1f2328" stroke="#1f2328" stroke-width="0.8"/><polyline points="366,34 400,34" fill="none" stroke="#1f2328" stroke-width="1.4"/><circle cx="70" cy="34" r="2.4" fill="#1f2328" stroke="none"/><polyline points="70,34 70,112" fill="none" stroke="#1f2328" stroke-width="1.4"/><polygon points="70,118 66.7,110.5 73.3,110.5" fill="#1f2328" stroke="#1f2328" stroke-width="0.8"/><text x="74" y="100" font-size="8" text-anchor="start" fill="#6a737d" font-weight="400" dominant-baseline="central" font-family="Consolas, 'Courier New', monospace">window[0]</text><circle cx="190" cy="34" r="2.4" fill="#1f2328" stroke="none"/><polyline points="190,34 190,112" fill="none" stroke="#1f2328" stroke-width="1.4"/><polygon points="190,118 186.7,110.5 193.3,110.5" fill="#1f2328" stroke="#1f2328" stroke-width="0.8"/><text x="194" y="100" font-size="8" text-anchor="start" fill="#6a737d" font-weight="400" dominant-baseline="central" font-family="Consolas, 'Courier New', monospace">window[1]</text><circle cx="290" cy="34" r="2.4" fill="#1f2328" stroke="none"/><polyline points="290,34 290,112" fill="none" stroke="#1f2328" stroke-width="1.4"/><polygon points="290,118 286.7,110.5 293.3,110.5" fill="#1f2328" stroke="#1f2328" stroke-width="0.8"/><text x="294" y="100" font-size="8" text-anchor="start" fill="#6a737d" font-weight="400" dominant-baseline="central" font-family="Consolas, 'Courier New', monospace">window[2]</text><polyline points="400,34 400,112" fill="none" stroke="#1f2328" stroke-width="1.4"/><polygon points="400,118 396.7,110.5 403.3,110.5" fill="#1f2328" stroke="#1f2328" stroke-width="0.8"/><text x="404" y="100" font-size="8" text-anchor="start" fill="#6a737d" font-weight="400" dominant-baseline="central" font-family="Consolas, 'Courier New', monospace">window[3]</text><polyline points="110,64 120,64" fill="none" stroke="#6a737d" stroke-width="1.4"/><polyline points="210,64 220,64" fill="none" stroke="#6a737d" stroke-width="1.4"/><polyline points="310,64 320,64" fill="none" stroke="#6a737d" stroke-width="1.4"/><rect x="50" y="118" width="380" height="43" rx="4" fill="#f3f5f7" stroke="#1f2328" stroke-width="1.4"/><text x="240" y="132.99" font-size="10.5" text-anchor="middle" fill="#1f2328" font-weight="600" dominant-baseline="central">window == pattern</text><text x="240" y="146.43" font-size="8.5" text-anchor="middle" fill="#6a737d" font-weight="400" dominant-baseline="central">N XNOR gates + an N-input AND tree</text><polyline points="240,196 240,167" fill="none" stroke="#1f2328" stroke-width="1.4"/><polygon points="240,161 243.3,168.5 236.7,168.5" fill="#1f2328" stroke="#1f2328" stroke-width="0.8"/><text x="240" y="204" font-size="8.5" text-anchor="middle" fill="#6a737d" font-weight="400" dominant-baseline="central">pattern (constant or register)</text><path d="M 470 133 H 486.12 A 13 13 0 0 1 486.12 159 H 470 Z" fill="#ffffff" stroke="#1f2328" stroke-width="1.4"/><line x1="460" y1="139.5" x2="470" y2="139.5" stroke="#1f2328" stroke-width="1.4"/><line x1="460" y1="152.5" x2="470" y2="152.5" stroke="#1f2328" stroke-width="1.4"/><polyline points="430,139.5 460,139.5" fill="none" stroke="#1f2328" stroke-width="1.4"/><rect x="300" y="176" width="130" height="32" rx="4" fill="#f3f5f7" stroke="#1f2328" stroke-width="1.4"/><text x="365" y="186.42" font-size="9" text-anchor="middle" fill="#1f2328" font-weight="600" dominant-baseline="central">fill counter</text><text x="365" y="197.94" font-size="7" text-anchor="middle" fill="#6a737d" font-weight="400" dominant-baseline="central">0 .. N-1, saturating</text><polyline points="430,192 448,192 448,152.5 460,152.5" fill="none" stroke="#1f2328" stroke-width="1.4"/><text x="452" y="176" font-size="8.5" text-anchor="start" fill="#6a737d" font-weight="400" dominant-baseline="central" font-family="Consolas, 'Courier New', monospace">full</text><polyline points="499.12,146 539,146" fill="none" stroke="#1f2328" stroke-width="1.4"/><polygon points="545,146 537.5,149.3 537.5,142.7" fill="#1f2328" stroke="#1f2328" stroke-width="0.8"/><text x="550" y="146" font-size="10" text-anchor="start" fill="#1f2328" font-weight="600" dominant-baseline="central" font-family="Consolas, 'Courier New', monospace">detect</text></svg>
