<svg xmlns="http://www.w3.org/2000/svg" viewBox="0 0 620 214" width="620" height="214" role="img" aria-label="self-checking testbench structure" font-family="'Segoe UI', Arial, sans-serif" stroke-linecap="round" stroke-linejoin="round"><rect x="14" y="18" width="150" height="42" rx="4" fill="#f3f5f7" stroke="#1f2328" stroke-width="1.4"/><text x="89" y="32.8" font-size="10" text-anchor="middle" fill="#1f2328" font-weight="600" dominant-baseline="central">directed traps</text><text x="89" y="45.6" font-size="8" text-anchor="middle" fill="#6a737d" font-weight="400" dominant-baseline="central">101011, 11011, 1011011</text><rect x="14" y="82" width="150" height="42" rx="4" fill="#f3f5f7" stroke="#1f2328" stroke-width="1.4"/><text x="89" y="96.8" font-size="10" text-anchor="middle" fill="#1f2328" font-weight="600" dominant-baseline="central">random bits</text><text x="89" y="109.6" font-size="8" text-anchor="middle" fill="#6a737d" font-weight="400" dominant-baseline="central">5000 bits, resets between</text><polyline points="164,39 190,39 190,103" fill="none" stroke="#1f2328" stroke-width="1.4"/><polyline points="164,103 190,103" fill="none" stroke="#1f2328" stroke-width="1.4"/><circle cx="190" cy="103" r="2.4" fill="#1f2328" stroke="none"/><text x="204" y="94" font-size="9" text-anchor="start" fill="#1f2328" font-weight="400" dominant-baseline="central" font-family="Consolas, 'Courier New', monospace">din</text><rect x="236" y="18" width="150" height="50" rx="4" fill="#e2eef7" stroke="#0f5d8a" stroke-width="1.4"/><text x="311" y="36.8" font-size="10" text-anchor="middle" fill="#0f5d8a" font-weight="600" dominant-baseline="central">DUTs</text><text x="311" y="49.6" font-size="8" text-anchor="middle" fill="#0f5d8a" font-weight="400" dominant-baseline="central">Mealy, Moore, shift (x2 each)</text><rect x="236" y="112" width="150" height="50" rx="4" fill="#f3f5f7" stroke="#1f2328" stroke-width="1.4"/><text x="311" y="130.8" font-size="10" text-anchor="middle" fill="#1f2328" font-weight="600" dominant-baseline="central">golden model</text><text x="311" y="143.6" font-size="8" text-anchor="middle" fill="#6a737d" font-weight="400" dominant-baseline="central">written from the spec</text><polyline points="190,103 212,103 212,43 230,43" fill="none" stroke="#1f2328" stroke-width="1.4"/><polygon points="236,43 228.5,46.3 228.5,39.7" fill="#1f2328" stroke="#1f2328" stroke-width="0.8"/><polyline points="212,103 212,137 230,137" fill="none" stroke="#1f2328" stroke-width="1.4"/><polygon points="236,137 228.5,140.3 228.5,133.7" fill="#1f2328" stroke="#1f2328" stroke-width="0.8"/><rect x="442" y="62" width="130" height="52" rx="4" fill="#f3f5f7" stroke="#1f2328" stroke-width="1.4"/><text x="507" y="81.8" font-size="10" text-anchor="middle" fill="#1f2328" font-weight="600" dominant-baseline="central">compare</text><text x="507" y="94.6" font-size="8" text-anchor="middle" fill="#6a737d" font-weight="400" dominant-baseline="central">every cycle, PASS / FAIL</text><polyline points="386,43 414,43 414,78 436,77.69" fill="none" stroke="#1f2328" stroke-width="1.4"/><polygon points="442,77.6 434.55,81.01 434.45,74.41" fill="#1f2328" stroke="#1f2328" stroke-width="0.8"/><polyline points="386,137 414,137 414,98 436,98.31" fill="none" stroke="#1f2328" stroke-width="1.4"/><polygon points="442,98.4 434.45,101.59 434.55,94.99" fill="#1f2328" stroke="#1f2328" stroke-width="0.8"/><text x="398" y="34" font-size="8.5" text-anchor="middle" fill="#6a737d" font-weight="400" dominant-baseline="central" font-family="Consolas, 'Courier New', monospace">detect</text><text x="398" y="150" font-size="8.5" text-anchor="middle" fill="#6a737d" font-weight="400" dominant-baseline="central" font-family="Consolas, 'Courier New', monospace">expected</text><rect x="236" y="176" width="150" height="30" rx="4" fill="#efe9f7" stroke="#5b3f8c" stroke-width="1.4" stroke-dasharray="4 3"/><text x="311" y="191" font-size="9.5" text-anchor="middle" fill="#5b3f8c" font-weight="600" dominant-baseline="central">SVA checker (bind)</text><polyline points="311,176 311,162" fill="none" stroke="#5b3f8c" stroke-width="1.4" stroke-dasharray="4 3"/><rect x="442" y="140" width="130" height="44" rx="4" fill="#f3f5f7" stroke="#1f2328" stroke-width="1.4" stroke-dasharray="4 3"/><text x="507" y="156.11" font-size="9.5" text-anchor="middle" fill="#1f2328" font-weight="600" dominant-baseline="central">coverage</text><text x="507" y="168.27" font-size="7.5" text-anchor="middle" fill="#6a737d" font-weight="400" dominant-baseline="central">every arc, back-to-back hits</text><polyline points="386,191 507,191 507,184" fill="none" stroke="#6a737d" stroke-width="1.4" stroke-dasharray="4 3"/></svg>
